<svg id="Calque_1" data-name="Calque 1" xmlns="http://www.w3.org/2000/svg" viewBox="0 0 156.42 130.11"><path d="M332.17,339.73l24.16-24.22,8.14,7.75L346.85,340c3.9,3.22,7.27,6.11,10.78,8.82a5.49,5.49,0,0,0,3.19.94q33.26.06,66.5,0c.27,0,.53-.28.69-.38L398.23,320.2c-2.56,3.16-5.79,7.16-9,11.1l-35.62-36.45,11.11-9.07-32.9-32.22c7.74-7.9,14.65-15,21.68-22,.67-.67,2.18-.66,3.31-.66q48.5,0,97,0a7.6,7.6,0,0,1,1.53.39l-40.86,39.47-6.27-6.4L406.76,263l22.14-19.72-.78-1.3h-5.79c-18.67,0-37.34.2-56-.15-5.44-.1-7.77,1.2-13,5.37-1.8,1.44-3.34,3.24-4.94,4.74l24.28,23.86,14.07-15.35,26.89,28.18c1,.15,4.23-3.21,5.48-4.46C434.7,268.43,450.57,252.94,466,237c4.41-4.56,5.81-6.37,15.16-6.17,1.79,0,3.62,0,5.87,0L422.53,295l65.76,65.78c-8.3-.46-14.88,1.88-21.14-4.79-16.64-17.7-34.11-34.62-51.83-52.44-5.91,6.65-5.39,5.76-7.4,8.47,15.18,14.95,33,32.71,49.08,48.56-.34.55-4.44.23-5.78.24-31,0-62,.08-93-.12a12.11,12.11,0,0,1-7.28-3C344.49,351.93,338.41,345.76,332.17,339.73Zm55.37-25.26,18.56-17.81L387.91,277.9l-18.55,18.25Z" transform="translate(-331.86 -230.82)"/></svg>